<svg width="36" height="36" viewBox="0 0 36 36" fill="none" xmlns="http://www.w3.org/2000/svg">
<mask id="mask0_1997_1727" style="mask-type:alpha" maskUnits="userSpaceOnUse" x="0" y="0" width="36" height="36">
<rect width="36" height="36" fill="#D9D9D9"/>
</mask>
<g mask="url(#mask0_1997_1727)">
<path d="M15 27C14.175 27 13.4688 26.7063 12.8813 26.1188C12.2938 25.5312 12 24.825 12 24V22.125C10.575 21.15 9.46875 19.9 8.68125 18.375C7.89375 16.85 7.5 15.225 7.5 13.5C7.5 10.575 8.51875 8.09375 10.5563 6.05625C12.5938 4.01875 15.075 3 18 3C20.925 3 23.4063 4.01875 25.4438 6.05625C27.4813 8.09375 28.5 10.575 28.5 13.5C28.5 15.225 28.1063 16.8438 27.3188 18.3563C26.5312 19.8687 25.425 21.125 24 22.125V24C24 24.825 23.7063 25.5312 23.1188 26.1188C22.5313 26.7063 21.825 27 21 27H15ZM15 33C14.575 33 14.2188 32.8562 13.9312 32.5687C13.6437 32.2812 13.5 31.925 13.5 31.5V30H22.5V31.5C22.5 31.925 22.3563 32.2812 22.0688 32.5687C21.7813 32.8562 21.425 33 21 33H15Z" fill="white"/>
</g>
</svg>
