<svg width="20" height="20" viewBox="0 0 20 20" fill="none" xmlns="http://www.w3.org/2000/svg">
<mask id="mask0_1997_1185" style="mask-type:alpha" maskUnits="userSpaceOnUse" x="0" y="0" width="20" height="20">
<rect width="20" height="20" fill="#D9D9D9"/>
</mask>
<g mask="url(#mask0_1997_1185)">
<path d="M17.4583 18.6458L15 16.1875V18.0416H13.3333V13.3333H18.0417V15H16.1667L18.625 17.4583L17.4583 18.6458ZM10 18.3333C8.84722 18.3333 7.76389 18.1145 6.75 17.677C5.73611 17.2395 4.85417 16.6458 4.10417 15.8958C3.35417 15.1458 2.76042 14.2638 2.32292 13.25C1.88542 12.2361 1.66667 11.1527 1.66667 9.99996C1.66667 8.84718 1.88542 7.76385 2.32292 6.74996C2.76042 5.73607 3.35417 4.85413 4.10417 4.10413C4.85417 3.35413 5.73611 2.76038 6.75 2.32288C7.76389 1.88538 8.84722 1.66663 10 1.66663C11.1528 1.66663 12.2361 1.88538 13.25 2.32288C14.2639 2.76038 15.1458 3.35413 15.8958 4.10413C16.6458 4.85413 17.2396 5.73607 17.6771 6.74996C18.1146 7.76385 18.3333 8.84718 18.3333 9.99996C18.3333 10.2777 18.3194 10.5555 18.2917 10.8333C18.2639 11.1111 18.2222 11.3888 18.1667 11.6666H16.4583C16.5278 11.3888 16.5799 11.1111 16.6146 10.8333C16.6493 10.5555 16.6667 10.2777 16.6667 9.99996C16.6667 9.72218 16.6493 9.4444 16.6146 9.16663C16.5799 8.88885 16.5278 8.61107 16.4583 8.33329H13.625C13.6667 8.61107 13.6979 8.88885 13.7188 9.16663C13.7396 9.4444 13.75 9.72218 13.75 9.99996C13.75 10.2777 13.7396 10.5555 13.7188 10.8333C13.6979 11.1111 13.6667 11.3888 13.625 11.6666H11.9583C12 11.3888 12.0312 11.1111 12.0521 10.8333C12.0729 10.5555 12.0833 10.2777 12.0833 9.99996C12.0833 9.72218 12.0729 9.4444 12.0521 9.16663C12.0312 8.88885 12 8.61107 11.9583 8.33329H8.04167C8 8.61107 7.96875 8.88885 7.94792 9.16663C7.92708 9.4444 7.91667 9.72218 7.91667 9.99996C7.91667 10.2777 7.92708 10.5555 7.94792 10.8333C7.96875 11.1111 8 11.3888 8.04167 11.6666H10.8333V13.3333H8.41667C8.58333 13.9305 8.79861 14.5034 9.0625 15.052C9.32639 15.6007 9.63889 16.125 10 16.625C10.2778 16.625 10.5556 16.6076 10.8333 16.5729C11.1111 16.5382 11.3889 16.5069 11.6667 16.4791V18.1875C11.3889 18.2152 11.1111 18.2465 10.8333 18.2812C10.5556 18.3159 10.2778 18.3333 10 18.3333ZM3.54167 11.6666H6.375C6.33333 11.3888 6.30208 11.1111 6.28125 10.8333C6.26042 10.5555 6.25 10.2777 6.25 9.99996C6.25 9.72218 6.26042 9.4444 6.28125 9.16663C6.30208 8.88885 6.33333 8.61107 6.375 8.33329H3.54167C3.47222 8.61107 3.42014 8.88885 3.38542 9.16663C3.35069 9.4444 3.33333 9.72218 3.33333 9.99996C3.33333 10.2777 3.35069 10.5555 3.38542 10.8333C3.42014 11.1111 3.47222 11.3888 3.54167 11.6666ZM4.25 6.66663H6.70833C6.83333 6.15274 6.98958 5.64926 7.17708 5.15621C7.36458 4.66315 7.58333 4.18051 7.83333 3.70829C7.06944 3.95829 6.38194 4.33676 5.77083 4.84371C5.15972 5.35065 4.65278 5.95829 4.25 6.66663ZM7.83333 16.2916C7.58333 15.8194 7.36458 15.3368 7.17708 14.8437C6.98958 14.3507 6.83333 13.8472 6.70833 13.3333H4.25C4.65278 14.0416 5.15972 14.6493 5.77083 15.1562C6.38194 15.6632 7.06944 16.0416 7.83333 16.2916ZM8.41667 6.66663H11.5833C11.4167 6.0694 11.2014 5.49649 10.9375 4.94788C10.6736 4.39926 10.3611 3.87496 10 3.37496C9.63889 3.87496 9.32639 4.39926 9.0625 4.94788C8.79861 5.49649 8.58333 6.0694 8.41667 6.66663ZM13.2917 6.66663H15.75C15.3472 5.95829 14.8403 5.35065 14.2292 4.84371C13.6181 4.33676 12.9306 3.95829 12.1667 3.70829C12.4167 4.18051 12.6354 4.66315 12.8229 5.15621C13.0104 5.64926 13.1667 6.15274 13.2917 6.66663Z" fill="#414853"/>
</g>
</svg>
