<svg width="37" height="36" viewBox="0 0 37 36" fill="none" xmlns="http://www.w3.org/2000/svg">
<mask id="mask0_1997_1703" style="mask-type:alpha" maskUnits="userSpaceOnUse" x="0" y="0" width="37" height="36">
<rect x="0.5" width="36" height="36" fill="#D9D9D9"/>
</mask>
<g mask="url(#mask0_1997_1703)">
<path d="M26.225 31.05L17.15 21.9C16.65 22.1 16.1438 22.25 15.6313 22.35C15.1188 22.45 14.575 22.5 14 22.5C11.5 22.5 9.375 21.625 7.625 19.875C5.875 18.125 5 16 5 13.5C5 12.6 5.125 11.7438 5.375 10.9312C5.625 10.1187 5.975 9.35 6.425 8.625L11.9 14.1L14.6 11.4L9.125 5.925C9.85 5.475 10.6187 5.125 11.4312 4.875C12.2438 4.625 13.1 4.5 14 4.5C16.5 4.5 18.625 5.375 20.375 7.125C22.125 8.875 23 11 23 13.5C23 14.075 22.95 14.6188 22.85 15.1313C22.75 15.6438 22.6 16.15 22.4 16.65L31.55 25.725C31.85 26.025 32 26.3875 32 26.8125C32 27.2375 31.85 27.6 31.55 27.9L28.4 31.05C28.1 31.35 27.7375 31.5 27.3125 31.5C26.8875 31.5 26.525 31.35 26.225 31.05Z" fill="white"/>
</g>
</svg>
