<svg width="37" height="36" viewBox="0 0 37 36" fill="none" xmlns="http://www.w3.org/2000/svg">
<mask id="mask0_1997_1709" style="mask-type:alpha" maskUnits="userSpaceOnUse" x="0" y="0" width="37" height="36">
<rect x="0.5" width="36" height="36" fill="#D9D9D9"/>
</mask>
<g mask="url(#mask0_1997_1709)">
<path d="M28.85 31.4999L20.6375 23.2874L23.7875 20.1374L32 28.3499L28.85 31.4999ZM8.15 31.4999L5 28.3499L15.35 17.9999L12.8 15.4499L11.75 16.4999L9.8375 14.5874V17.6624L8.7875 18.7124L4.25 14.1749L5.3 13.1249H8.375L6.5 11.2499L11.825 5.9249C12.325 5.4249 12.8625 5.0624 13.4375 4.8374C14.0125 4.6124 14.6 4.4999 15.2 4.4999C15.8 4.4999 16.3875 4.6124 16.9625 4.8374C17.5375 5.0624 18.075 5.4249 18.575 5.9249L15.125 9.3749L17 11.2499L15.95 12.2999L18.5 14.8499L21.875 11.4749C21.775 11.1999 21.6938 10.9124 21.6313 10.6124C21.5688 10.3124 21.5375 10.0124 21.5375 9.7124C21.5375 8.2374 22.0438 6.99365 23.0563 5.98115C24.0688 4.96865 25.3125 4.4624 26.7875 4.4624C27.1625 4.4624 27.5188 4.4999 27.8563 4.5749C28.1938 4.6499 28.5375 4.7624 28.8875 4.9124L25.175 8.6249L27.875 11.3249L31.5875 7.6124C31.7625 7.9624 31.8812 8.30615 31.9437 8.64365C32.0063 8.98115 32.0375 9.3374 32.0375 9.7124C32.0375 11.1874 31.5313 12.4312 30.5188 13.4437C29.5063 14.4562 28.2625 14.9624 26.7875 14.9624C26.4875 14.9624 26.1875 14.9374 25.8875 14.8874C25.5875 14.8374 25.3 14.7499 25.025 14.6249L8.15 31.4999Z" fill="white"/>
</g>
</svg>
