<svg width="36" height="36" viewBox="0 0 36 36" fill="none" xmlns="http://www.w3.org/2000/svg">
<mask id="mask0_1997_1715" style="mask-type:alpha" maskUnits="userSpaceOnUse" x="0" y="0" width="36" height="36">
<rect width="36" height="36" fill="#D9D9D9"/>
</mask>
<g mask="url(#mask0_1997_1715)">
<path d="M18 33C15.925 33 13.975 32.6062 12.15 31.8187C10.325 31.0312 8.7375 29.9625 7.3875 28.6125C6.0375 27.2625 4.96875 25.675 4.18125 23.85C3.39375 22.025 3 20.075 3 18C3 15.925 3.39375 13.975 4.18125 12.15C4.96875 10.325 6.0375 8.7375 7.3875 7.3875C8.7375 6.0375 10.325 4.96875 12.15 4.18125C13.975 3.39375 15.925 3 18 3C20.075 3 22.025 3.39375 23.85 4.18125C25.675 4.96875 27.2625 6.0375 28.6125 7.3875C29.9625 8.7375 31.0312 10.325 31.8187 12.15C32.6062 13.975 33 15.925 33 18C33 20.075 32.6062 22.025 31.8187 23.85C31.0312 25.675 29.9625 27.2625 28.6125 28.6125C27.2625 29.9625 25.675 31.0312 23.85 31.8187C22.025 32.6062 20.075 33 18 33ZM18 26.25C19.125 25.125 20.125 23.9625 21 22.7625C21.75 21.7375 22.4375 20.6125 23.0625 19.3875C23.6875 18.1625 24 16.95 24 15.75C24 14.1 23.4125 12.6875 22.2375 11.5125C21.0625 10.3375 19.65 9.75 18 9.75C16.35 9.75 14.9375 10.3375 13.7625 11.5125C12.5875 12.6875 12 14.1 12 15.75C12 16.95 12.3125 18.1625 12.9375 19.3875C13.5625 20.6125 14.25 21.7375 15 22.7625C15.875 23.9625 16.875 25.125 18 26.25ZM18 18C17.375 18 16.8438 17.7812 16.4062 17.3438C15.9688 16.9062 15.75 16.375 15.75 15.75C15.75 15.125 15.9688 14.5938 16.4062 14.1562C16.8438 13.7188 17.375 13.5 18 13.5C18.625 13.5 19.1562 13.7188 19.5938 14.1562C20.0312 14.5938 20.25 15.125 20.25 15.75C20.25 16.375 20.0312 16.9062 19.5938 17.3438C19.1562 17.7812 18.625 18 18 18Z" fill="white"/>
</g>
</svg>
