<svg width="322" height="322" viewBox="0 0 322 322" fill="none" xmlns="http://www.w3.org/2000/svg">
<path d="M7.85366 0H0V7.85366H7.85366V0Z" fill="black"/>
<path d="M15.7073 0H7.85366V7.85366H15.7073V0Z" fill="black"/>
<path d="M23.561 0H15.7073V7.85366H23.561V0Z" fill="black"/>
<path d="M31.4146 0H23.561V7.85366H31.4146V0Z" fill="black"/>
<path d="M39.2683 0H31.4146V7.85366H39.2683V0Z" fill="black"/>
<path d="M47.122 0H39.2683V7.85366H47.122V0Z" fill="black"/>
<path d="M54.9756 0H47.122V7.85366H54.9756V0Z" fill="black"/>
<path d="M70.6829 0H62.8293V7.85366H70.6829V0Z" fill="black"/>
<path d="M86.3903 0H78.5366V7.85366H86.3903V0Z" fill="black"/>
<path d="M94.2439 0H86.3903V7.85366H94.2439V0Z" fill="black"/>
<path d="M109.951 0H102.098V7.85366H109.951V0Z" fill="black"/>
<path d="M117.805 0H109.951V7.85366H117.805V0Z" fill="black"/>
<path d="M125.659 0H117.805V7.85366H125.659V0Z" fill="black"/>
<path d="M141.366 0H133.512V7.85366H141.366V0Z" fill="black"/>
<path d="M149.22 0H141.366V7.85366H149.22V0Z" fill="black"/>
<path d="M164.927 0H157.073V7.85366H164.927V0Z" fill="black"/>
<path d="M172.781 0H164.927V7.85366H172.781V0Z" fill="black"/>
<path d="M204.195 0H196.341V7.85366H204.195V0Z" fill="black"/>
<path d="M219.902 0H212.049V7.85366H219.902V0Z" fill="black"/>
<path d="M227.756 0H219.902V7.85366H227.756V0Z" fill="black"/>
<path d="M235.61 0H227.756V7.85366H235.61V0Z" fill="black"/>
<path d="M259.171 0H251.317V7.85366H259.171V0Z" fill="black"/>
<path d="M274.878 0H267.024V7.85366H274.878V0Z" fill="black"/>
<path d="M282.732 0H274.878V7.85366H282.732V0Z" fill="black"/>
<path d="M290.585 0H282.732V7.85366H290.585V0Z" fill="black"/>
<path d="M298.439 0H290.585V7.85366H298.439V0Z" fill="black"/>
<path d="M306.293 0H298.439V7.85366H306.293V0Z" fill="black"/>
<path d="M314.146 0H306.293V7.85366H314.146V0Z" fill="black"/>
<path d="M322 0H314.146V7.85366H322V0Z" fill="black"/>
<path d="M7.85366 7.85366H0V15.7073H7.85366V7.85366Z" fill="black"/>
<path d="M54.9756 7.85366H47.122V15.7073H54.9756V7.85366Z" fill="black"/>
<path d="M78.5366 7.85366H70.6829V15.7073H78.5366V7.85366Z" fill="black"/>
<path d="M86.3903 7.85366H78.5366V15.7073H86.3903V7.85366Z" fill="black"/>
<path d="M133.512 7.85366H125.659V15.7073H133.512V7.85366Z" fill="black"/>
<path d="M141.366 7.85366H133.512V15.7073H141.366V7.85366Z" fill="black"/>
<path d="M157.073 7.85366H149.22V15.7073H157.073V7.85366Z" fill="black"/>
<path d="M172.781 7.85366H164.927V15.7073H172.781V7.85366Z" fill="black"/>
<path d="M188.488 7.85366H180.634V15.7073H188.488V7.85366Z" fill="black"/>
<path d="M227.756 7.85366H219.902V15.7073H227.756V7.85366Z" fill="black"/>
<path d="M259.171 7.85366H251.317V15.7073H259.171V7.85366Z" fill="black"/>
<path d="M274.878 7.85366H267.024V15.7073H274.878V7.85366Z" fill="black"/>
<path d="M322 7.85366H314.146V15.7073H322V7.85366Z" fill="black"/>
<path d="M7.85366 15.7073H0V23.561H7.85366V15.7073Z" fill="black"/>
<path d="M23.561 15.7073H15.7073V23.561H23.561V15.7073Z" fill="black"/>
<path d="M31.4146 15.7073H23.561V23.561H31.4146V15.7073Z" fill="black"/>
<path d="M39.2683 15.7073H31.4146V23.561H39.2683V15.7073Z" fill="black"/>
<path d="M54.9756 15.7073H47.122V23.561H54.9756V15.7073Z" fill="black"/>
<path d="M78.5366 15.7073H70.6829V23.561H78.5366V15.7073Z" fill="black"/>
<path d="M109.951 15.7073H102.098V23.561H109.951V15.7073Z" fill="black"/>
<path d="M117.805 15.7073H109.951V23.561H117.805V15.7073Z" fill="black"/>
<path d="M133.512 15.7073H125.659V23.561H133.512V15.7073Z" fill="black"/>
<path d="M149.22 15.7073H141.366V23.561H149.22V15.7073Z" fill="black"/>
<path d="M180.634 15.7073H172.781V23.561H180.634V15.7073Z" fill="black"/>
<path d="M219.902 15.7073H212.049V23.561H219.902V15.7073Z" fill="black"/>
<path d="M235.61 15.7073H227.756V23.561H235.61V15.7073Z" fill="black"/>
<path d="M251.317 15.7073H243.463V23.561H251.317V15.7073Z" fill="black"/>
<path d="M274.878 15.7073H267.024V23.561H274.878V15.7073Z" fill="black"/>
<path d="M290.585 15.7073H282.732V23.561H290.585V15.7073Z" fill="black"/>
<path d="M298.439 15.7073H290.585V23.561H298.439V15.7073Z" fill="black"/>
<path d="M306.293 15.7073H298.439V23.561H306.293V15.7073Z" fill="black"/>
<path d="M322 15.7073H314.146V23.561H322V15.7073Z" fill="black"/>
<path d="M7.85366 23.561H0V31.4146H7.85366V23.561Z" fill="black"/>
<path d="M23.561 23.561H15.7073V31.4146H23.561V23.561Z" fill="black"/>
<path d="M31.4146 23.561H23.561V31.4146H31.4146V23.561Z" fill="black"/>
<path d="M39.2683 23.561H31.4146V31.4146H39.2683V23.561Z" fill="black"/>
<path d="M54.9756 23.561H47.122V31.4146H54.9756V23.561Z" fill="black"/>
<path d="M86.3903 23.561H78.5366V31.4146H86.3903V23.561Z" fill="black"/>
<path d="M94.2439 23.561H86.3903V31.4146H94.2439V23.561Z" fill="black"/>
<path d="M102.098 23.561H94.2439V31.4146H102.098V23.561Z" fill="black"/>
<path d="M125.659 23.561H117.805V31.4146H125.659V23.561Z" fill="black"/>
<path d="M133.512 23.561H125.659V31.4146H133.512V23.561Z" fill="black"/>
<path d="M164.927 23.561H157.073V31.4146H164.927V23.561Z" fill="black"/>
<path d="M180.634 23.561H172.781V31.4146H180.634V23.561Z" fill="black"/>
<path d="M188.488 23.561H180.634V31.4146H188.488V23.561Z" fill="black"/>
<path d="M219.902 23.561H212.049V31.4146H219.902V23.561Z" fill="black"/>
<path d="M243.463 23.561H235.61V31.4146H243.463V23.561Z" fill="black"/>
<path d="M251.317 23.561H243.463V31.4146H251.317V23.561Z" fill="black"/>
<path d="M259.171 23.561H251.317V31.4146H259.171V23.561Z" fill="black"/>
<path d="M274.878 23.561H267.024V31.4146H274.878V23.561Z" fill="black"/>
<path d="M290.585 23.561H282.732V31.4146H290.585V23.561Z" fill="black"/>
<path d="M298.439 23.561H290.585V31.4146H298.439V23.561Z" fill="black"/>
<path d="M306.293 23.561H298.439V31.4146H306.293V23.561Z" fill="black"/>
<path d="M322 23.561H314.146V31.4146H322V23.561Z" fill="black"/>
<path d="M7.85366 31.4146H0V39.2683H7.85366V31.4146Z" fill="black"/>
<path d="M23.561 31.4146H15.7073V39.2683H23.561V31.4146Z" fill="black"/>
<path d="M31.4146 31.4146H23.561V39.2683H31.4146V31.4146Z" fill="black"/>
<path d="M39.2683 31.4146H31.4146V39.2683H39.2683V31.4146Z" fill="black"/>
<path d="M54.9756 31.4146H47.122V39.2683H54.9756V31.4146Z" fill="black"/>
<path d="M70.6829 31.4146H62.8293V39.2683H70.6829V31.4146Z" fill="black"/>
<path d="M86.3903 31.4146H78.5366V39.2683H86.3903V31.4146Z" fill="black"/>
<path d="M102.098 31.4146H94.2439V39.2683H102.098V31.4146Z" fill="black"/>
<path d="M109.951 31.4146L102.098 31.4146V39.2683H109.951V31.4146Z" fill="black"/>
<path d="M125.659 31.4146H117.805V39.2683H125.659V31.4146Z" fill="black"/>
<path d="M133.512 31.4146H125.659V39.2683H133.512V31.4146Z" fill="black"/>
<path d="M180.634 31.4146H172.781V39.2683H180.634V31.4146Z" fill="black"/>
<path d="M188.488 31.4146H180.634V39.2683H188.488V31.4146Z" fill="black"/>
<path d="M227.756 31.4146L219.902 31.4146V39.2683H227.756V31.4146Z" fill="black"/>
<path d="M235.61 31.4146L227.756 31.4146V39.2683H235.61V31.4146Z" fill="black"/>
<path d="M243.463 31.4146H235.61V39.2683H243.463V31.4146Z" fill="black"/>
<path d="M259.171 31.4146H251.317V39.2683H259.171V31.4146Z" fill="black"/>
<path d="M274.878 31.4146H267.024V39.2683H274.878V31.4146Z" fill="black"/>
<path d="M290.585 31.4146H282.732V39.2683H290.585V31.4146Z" fill="black"/>
<path d="M298.439 31.4146H290.585V39.2683H298.439V31.4146Z" fill="black"/>
<path d="M306.293 31.4146H298.439V39.2683H306.293V31.4146Z" fill="black"/>
<path d="M322 31.4146H314.146V39.2683H322V31.4146Z" fill="black"/>
<path d="M7.85366 39.2683H0V47.122H7.85366V39.2683Z" fill="black"/>
<path d="M54.9756 39.2683H47.122V47.122H54.9756V39.2683Z" fill="black"/>
<path d="M94.2439 39.2683H86.3903V47.122H94.2439V39.2683Z" fill="black"/>
<path d="M117.805 39.2683H109.951V47.122H117.805V39.2683Z" fill="black"/>
<path d="M125.659 39.2683H117.805V47.122H125.659V39.2683Z" fill="black"/>
<path d="M133.512 39.2683H125.659V47.122H133.512V39.2683Z" fill="black"/>
<path d="M157.073 39.2683H149.22V47.122H157.073V39.2683Z" fill="black"/>
<path d="M164.927 39.2683H157.073V47.122H164.927V39.2683Z" fill="black"/>
<path d="M172.781 39.2683H164.927V47.122H172.781V39.2683Z" fill="black"/>
<path d="M243.463 39.2683H235.61V47.122H243.463V39.2683Z" fill="black"/>
<path d="M251.317 39.2683H243.463V47.122H251.317V39.2683Z" fill="black"/>
<path d="M259.171 39.2683H251.317V47.122H259.171V39.2683Z" fill="black"/>
<path d="M274.878 39.2683H267.024V47.122H274.878V39.2683Z" fill="black"/>
<path d="M322 39.2683H314.146V47.122H322V39.2683Z" fill="black"/>
<path d="M7.85366 47.122H0V54.9756H7.85366V47.122Z" fill="black"/>
<path d="M15.7073 47.122H7.85366V54.9756H15.7073V47.122Z" fill="black"/>
<path d="M23.561 47.122H15.7073V54.9756H23.561V47.122Z" fill="black"/>
<path d="M31.4146 47.122H23.561V54.9756H31.4146V47.122Z" fill="black"/>
<path d="M39.2683 47.122H31.4146V54.9756H39.2683V47.122Z" fill="black"/>
<path d="M47.122 47.122H39.2683V54.9756H47.122V47.122Z" fill="black"/>
<path d="M54.9756 47.122H47.122V54.9756H54.9756V47.122Z" fill="black"/>
<path d="M70.6829 47.122H62.8293V54.9756H70.6829V47.122Z" fill="black"/>
<path d="M86.3903 47.122H78.5366V54.9756H86.3903V47.122Z" fill="black"/>
<path d="M102.098 47.122H94.2439V54.9756H102.098V47.122Z" fill="black"/>
<path d="M117.805 47.122H109.951V54.9756H117.805V47.122Z" fill="black"/>
<path d="M133.512 47.122H125.659V54.9756H133.512V47.122Z" fill="black"/>
<path d="M149.22 47.122H141.366V54.9756H149.22V47.122Z" fill="black"/>
<path d="M164.927 47.122H157.073V54.9756H164.927V47.122Z" fill="black"/>
<path d="M180.634 47.122H172.781V54.9756H180.634V47.122Z" fill="black"/>
<path d="M196.341 47.122H188.488V54.9756H196.341V47.122Z" fill="black"/>
<path d="M212.049 47.122H204.195V54.9756H212.049V47.122Z" fill="black"/>
<path d="M227.756 47.122H219.902V54.9756H227.756V47.122Z" fill="black"/>
<path d="M243.463 47.122H235.61V54.9756H243.463V47.122Z" fill="black"/>
<path d="M259.171 47.122H251.317V54.9756H259.171V47.122Z" fill="black"/>
<path d="M274.878 47.122H267.024V54.9756H274.878V47.122Z" fill="black"/>
<path d="M282.732 47.122H274.878V54.9756H282.732V47.122Z" fill="black"/>
<path d="M290.585 47.122H282.732V54.9756H290.585V47.122Z" fill="black"/>
<path d="M298.439 47.122H290.585V54.9756H298.439V47.122Z" fill="black"/>
<path d="M306.293 47.122H298.439V54.9756H306.293V47.122Z" fill="black"/>
<path d="M314.146 47.122H306.293V54.9756H314.146V47.122Z" fill="black"/>
<path d="M322 47.122H314.146V54.9756H322V47.122Z" fill="black"/>
<path d="M70.6829 54.9756H62.8293V62.8293H70.6829V54.9756Z" fill="black"/>
<path d="M86.3903 54.9756H78.5366V62.8293H86.3903V54.9756Z" fill="black"/>
<path d="M117.805 54.9756H109.951V62.8293H117.805V54.9756Z" fill="black"/>
<path d="M125.659 54.9756H117.805V62.8293H125.659V54.9756Z" fill="black"/>
<path d="M141.366 54.9756H133.512V62.8293H141.366V54.9756Z" fill="black"/>
<path d="M149.22 54.9756H141.366V62.8293H149.22V54.9756Z" fill="black"/>
<path d="M157.073 54.9756H149.22V62.8293H157.073V54.9756Z" fill="black"/>
<path d="M164.927 54.9756H157.073V62.8293H164.927V54.9756Z" fill="black"/>
<path d="M180.634 54.9756H172.781V62.8293H180.634V54.9756Z" fill="black"/>
<path d="M188.488 54.9756H180.634V62.8293H188.488V54.9756Z" fill="black"/>
<path d="M196.341 54.9756H188.488V62.8293H196.341V54.9756Z" fill="black"/>
<path d="M204.195 54.9756H196.341V62.8293H204.195V54.9756Z" fill="black"/>
<path d="M212.049 54.9756H204.195V62.8293H212.049V54.9756Z" fill="black"/>
<path d="M219.902 54.9756H212.049V62.8293H219.902V54.9756Z" fill="black"/>
<path d="M227.756 54.9756H219.902V62.8293H227.756V54.9756Z" fill="black"/>
<path d="M235.61 54.9756H227.756V62.8293H235.61V54.9756Z" fill="black"/>
<path d="M7.85366 62.8293H0V70.6829H7.85366V62.8293Z" fill="black"/>
<path d="M31.4146 62.8293H23.561V70.6829H31.4146V62.8293Z" fill="black"/>
<path d="M39.2683 62.8293H31.4146V70.6829H39.2683V62.8293Z" fill="black"/>
<path d="M47.122 62.8293H39.2683V70.6829H47.122V62.8293Z" fill="black"/>
<path d="M54.9756 62.8293H47.122V70.6829H54.9756V62.8293Z" fill="black"/>
<path d="M62.8293 62.8293H54.9756V70.6829H62.8293V62.8293Z" fill="black"/>
<path d="M70.6829 62.8293H62.8293V70.6829H70.6829V62.8293Z" fill="black"/>
<path d="M86.3903 62.8293H78.5366V70.6829H86.3903V62.8293Z" fill="black"/>
<path d="M109.951 62.8293H102.098V70.6829H109.951V62.8293Z" fill="black"/>
<path d="M125.659 62.8293H117.805V70.6829H125.659V62.8293Z" fill="black"/>
<path d="M141.366 62.8293H133.512V70.6829H141.366V62.8293Z" fill="black"/>
<path d="M149.22 62.8293H141.366V70.6829H149.22V62.8293Z" fill="black"/>
<path d="M172.781 62.8293H164.927V70.6829H172.781V62.8293Z" fill="black"/>
<path d="M180.634 62.8293H172.781V70.6829H180.634V62.8293Z" fill="black"/>
<path d="M196.341 62.8293H188.488V70.6829H196.341V62.8293Z" fill="black"/>
<path d="M204.195 62.8293H196.341V70.6829H204.195V62.8293Z" fill="black"/>
<path d="M212.049 62.8293H204.195V70.6829H212.049V62.8293Z" fill="black"/>
<path d="M227.756 62.8293H219.902V70.6829H227.756V62.8293Z" fill="black"/>
<path d="M235.61 62.8293H227.756V70.6829H235.61V62.8293Z" fill="black"/>
<path d="M243.463 62.8293H235.61V70.6829H243.463V62.8293Z" fill="black"/>
<path d="M251.317 62.8293H243.463V70.6829H251.317V62.8293Z" fill="black"/>
<path d="M259.171 62.8293H251.317V70.6829H259.171V62.8293Z" fill="black"/>
<path d="M267.024 62.8293H259.171V70.6829H267.024V62.8293Z" fill="black"/>
<path d="M274.878 62.8293H267.024V70.6829H274.878V62.8293Z" fill="black"/>
<path d="M290.585 62.8293H282.732V70.6829H290.585V62.8293Z" fill="black"/>
<path d="M322 62.8293H314.146V70.6829H322V62.8293Z" fill="black"/>
<path d="M15.7073 70.6829H7.85366V78.5366H15.7073V70.6829Z" fill="black"/>
<path d="M23.561 70.6829H15.7073V78.5366H23.561V70.6829Z" fill="black"/>
<path d="M31.4146 70.6829H23.561V78.5366H31.4146V70.6829Z" fill="black"/>
<path d="M47.122 70.6829H39.2683V78.5366H47.122V70.6829Z" fill="black"/>
<path d="M62.8293 70.6829H54.9756V78.5366H62.8293V70.6829Z" fill="black"/>
<path d="M94.2439 70.6829H86.3903V78.5366H94.2439V70.6829Z" fill="black"/>
<path d="M109.951 70.6829H102.098V78.5366H109.951V70.6829Z" fill="black"/>
<path d="M117.805 70.6829H109.951V78.5366H117.805V70.6829Z" fill="black"/>
<path d="M133.512 70.6829H125.659V78.5366H133.512V70.6829Z" fill="black"/>
<path d="M149.22 70.6829H141.366V78.5366H149.22V70.6829Z" fill="black"/>
<path d="M164.927 70.6829H157.073V78.5366H164.927V70.6829Z" fill="black"/>
<path d="M172.781 70.6829H164.927V78.5366H172.781V70.6829Z" fill="black"/>
<path d="M180.634 70.6829H172.781V78.5366H180.634V70.6829Z" fill="black"/>
<path d="M196.341 70.6829H188.488V78.5366H196.341V70.6829Z" fill="black"/>
<path d="M204.195 70.6829H196.341V78.5366H204.195V70.6829Z" fill="black"/>
<path d="M212.049 70.6829H204.195V78.5366H212.049V70.6829Z" fill="black"/>
<path d="M219.902 70.6829H212.049V78.5366H219.902V70.6829Z" fill="black"/>
<path d="M227.756 70.6829H219.902V78.5366H227.756V70.6829Z" fill="black"/>
<path d="M235.61 70.6829H227.756V78.5366H235.61V70.6829Z" fill="black"/>
<path d="M251.317 70.6829H243.463V78.5366H251.317V70.6829Z" fill="black"/>
<path d="M259.171 70.6829H251.317V78.5366H259.171V70.6829Z" fill="black"/>
<path d="M267.024 70.6829H259.171V78.5366H267.024V70.6829Z" fill="black"/>
<path d="M274.878 70.6829H267.024V78.5366H274.878V70.6829Z" fill="black"/>
<path d="M298.439 70.6829H290.585V78.5366H298.439V70.6829Z" fill="black"/>
<path d="M322 70.6829H314.146V78.5366H322V70.6829Z" fill="black"/>
<path d="M7.85366 78.5366H0V86.3903H7.85366V78.5366Z" fill="black"/>
<path d="M15.7073 78.5366H7.85366V86.3903H15.7073V78.5366Z" fill="black"/>
<path d="M47.122 78.5366H39.2683V86.3903H47.122V78.5366Z" fill="black"/>
<path d="M54.9756 78.5366H47.122V86.3903H54.9756V78.5366Z" fill="black"/>
<path d="M70.6829 78.5366H62.8293V86.3903H70.6829V78.5366Z" fill="black"/>
<path d="M78.5366 78.5366H70.6829V86.3903H78.5366V78.5366Z" fill="black"/>
<path d="M109.951 78.5366H102.098V86.3903H109.951V78.5366Z" fill="black"/>
<path d="M141.366 78.5366H133.512V86.3903H141.366V78.5366Z" fill="black"/>
<path d="M149.22 78.5366H141.366V86.3903H149.22V78.5366Z" fill="black"/>
<path d="M164.927 78.5366H157.073V86.3903H164.927V78.5366Z" fill="black"/>
<path d="M180.634 78.5366H172.781V86.3903H180.634V78.5366Z" fill="black"/>
<path d="M188.488 78.5366H180.634V86.3903H188.488V78.5366Z" fill="black"/>
<path d="M196.341 78.5366H188.488V86.3903H196.341V78.5366Z" fill="black"/>
<path d="M227.756 78.5366H219.902V86.3903H227.756V78.5366Z" fill="black"/>
<path d="M235.61 78.5366H227.756V86.3903H235.61V78.5366Z" fill="black"/>
<path d="M243.463 78.5366H235.61V86.3903H243.463V78.5366Z" fill="black"/>
<path d="M259.171 78.5366H251.317V86.3903H259.171V78.5366Z" fill="black"/>
<path d="M298.439 78.5366H290.585V86.3903H298.439V78.5366Z" fill="black"/>
<path d="M314.146 78.5366H306.293V86.3903H314.146V78.5366Z" fill="black"/>
<path d="M31.4146 86.3903H23.561V94.2439H31.4146V86.3903Z" fill="black"/>
<path d="M47.122 86.3903H39.2683V94.2439H47.122V86.3903Z" fill="black"/>
<path d="M62.8293 86.3903H54.9756V94.2439H62.8293V86.3903Z" fill="black"/>
<path d="M102.098 86.3903H94.2439V94.2439H102.098V86.3903Z" fill="black"/>
<path d="M109.951 86.3903H102.098V94.2439H109.951V86.3903Z" fill="black"/>
<path d="M117.805 86.3903H109.951V94.2439H117.805V86.3903Z" fill="black"/>
<path d="M141.366 86.3903H133.512V94.2439H141.366V86.3903Z" fill="black"/>
<path d="M149.22 86.3903H141.366V94.2439H149.22V86.3903Z" fill="black"/>
<path d="M172.781 86.3903H164.927V94.2439H172.781V86.3903Z" fill="black"/>
<path d="M188.488 86.3903H180.634V94.2439H188.488V86.3903Z" fill="black"/>
<path d="M212.049 86.3903H204.195V94.2439H212.049V86.3903Z" fill="black"/>
<path d="M235.61 86.3903H227.756V94.2439H235.61V86.3903Z" fill="black"/>
<path d="M243.463 86.3903H235.61V94.2439H243.463V86.3903Z" fill="black"/>
<path d="M251.317 86.3903H243.463V94.2439H251.317V86.3903Z" fill="black"/>
<path d="M267.024 86.3903H259.171V94.2439H267.024V86.3903Z" fill="black"/>
<path d="M274.878 86.3903H267.024V94.2439H274.878V86.3903Z" fill="black"/>
<path d="M290.585 86.3903H282.732V94.2439H290.585V86.3903Z" fill="black"/>
<path d="M298.439 86.3903H290.585V94.2439H298.439V86.3903Z" fill="black"/>
<path d="M306.293 86.3903H298.439V94.2439H306.293V86.3903Z" fill="black"/>
<path d="M314.146 86.3903H306.293V94.2439H314.146V86.3903Z" fill="black"/>
<path d="M7.85366 94.2439H0V102.098H7.85366V94.2439Z" fill="black"/>
<path d="M47.122 94.2439H39.2683V102.098H47.122V94.2439Z" fill="black"/>
<path d="M54.9756 94.2439H47.122V102.098H54.9756V94.2439Z" fill="black"/>
<path d="M78.5366 94.2439H70.6829V102.098H78.5366V94.2439Z" fill="black"/>
<path d="M94.2439 94.2439H86.3903V102.098H94.2439V94.2439Z" fill="black"/>
<path d="M102.098 94.2439H94.2439V102.098H102.098V94.2439Z" fill="black"/>
<path d="M109.951 94.2439H102.098V102.098H109.951V94.2439Z" fill="black"/>
<path d="M133.512 94.2439H125.659V102.098H133.512V94.2439Z" fill="black"/>
<path d="M141.366 94.2439H133.512V102.098H141.366V94.2439Z" fill="black"/>
<path d="M157.073 94.2439H149.22V102.098H157.073V94.2439Z" fill="black"/>
<path d="M172.781 94.2439H164.927V102.098H172.781V94.2439Z" fill="black"/>
<path d="M188.488 94.2439H180.634V102.098H188.488V94.2439Z" fill="black"/>
<path d="M212.049 94.2439H204.195V102.098H212.049V94.2439Z" fill="black"/>
<path d="M219.902 94.2439H212.049V102.098H219.902V94.2439Z" fill="black"/>
<path d="M235.61 94.2439H227.756V102.098H235.61V94.2439Z" fill="black"/>
<path d="M243.463 94.2439H235.61V102.098H243.463V94.2439Z" fill="black"/>
<path d="M298.439 94.2439H290.585V102.098H298.439V94.2439Z" fill="black"/>
<path d="M31.4146 102.098H23.561V109.951H31.4146V102.098Z" fill="black"/>
<path d="M47.122 102.098H39.2683V109.951H47.122V102.098Z" fill="black"/>
<path d="M62.8293 102.098H54.9756V109.951H62.8293V102.098Z" fill="black"/>
<path d="M78.5366 102.098H70.6829V109.951H78.5366V102.098Z" fill="black"/>
<path d="M125.659 102.098H117.805V109.951H125.659V102.098Z" fill="black"/>
<path d="M133.512 102.098H125.659V109.951H133.512V102.098Z" fill="black"/>
<path d="M141.366 102.098H133.512V109.951H141.366V102.098Z" fill="black"/>
<path d="M157.073 102.098H149.22V109.951H157.073V102.098Z" fill="black"/>
<path d="M180.634 102.098H172.781V109.951H180.634V102.098Z" fill="black"/>
<path d="M196.341 102.098H188.488V109.951H196.341V102.098Z" fill="black"/>
<path d="M204.195 102.098H196.341V109.951H204.195V102.098Z" fill="black"/>
<path d="M212.049 102.098H204.195V109.951H212.049V102.098Z" fill="black"/>
<path d="M219.902 102.098H212.049V109.951H219.902V102.098Z" fill="black"/>
<path d="M227.756 102.098H219.902V109.951H227.756V102.098Z" fill="black"/>
<path d="M235.61 102.098H227.756V109.951H235.61V102.098Z" fill="black"/>
<path d="M259.171 102.098H251.317V109.951H259.171V102.098Z" fill="black"/>
<path d="M274.878 102.098H267.024V109.951H274.878V102.098Z" fill="black"/>
<path d="M298.439 102.098H290.585V109.951H298.439V102.098Z" fill="black"/>
<path d="M306.293 102.098H298.439V109.951H306.293V102.098Z" fill="black"/>
<path d="M322 102.098H314.146V109.951H322V102.098Z" fill="black"/>
<path d="M15.7073 109.951H7.85366V117.805H15.7073V109.951Z" fill="black"/>
<path d="M31.4146 109.951H23.561V117.805H31.4146V109.951Z" fill="black"/>
<path d="M47.122 109.951H39.2683V117.805H47.122V109.951Z" fill="black"/>
<path d="M54.9756 109.951H47.122V117.805H54.9756V109.951Z" fill="black"/>
<path d="M78.5366 109.951H70.6829V117.805H78.5366V109.951Z" fill="black"/>
<path d="M86.3903 109.951H78.5366V117.805H86.3903V109.951Z" fill="black"/>
<path d="M149.22 109.951H141.366V117.805H149.22V109.951Z" fill="black"/>
<path d="M180.634 109.951H172.781V117.805H180.634V109.951Z" fill="black"/>
<path d="M188.488 109.951H180.634V117.805H188.488V109.951Z" fill="black"/>
<path d="M204.195 109.951H196.341V117.805H204.195V109.951Z" fill="black"/>
<path d="M212.049 109.951H204.195V117.805H212.049V109.951Z" fill="black"/>
<path d="M219.902 109.951H212.049V117.805H219.902V109.951Z" fill="black"/>
<path d="M235.61 109.951H227.756V117.805H235.61V109.951Z" fill="black"/>
<path d="M251.317 109.951H243.463V117.805H251.317V109.951Z" fill="black"/>
<path d="M274.878 109.951H267.024V117.805H274.878V109.951Z" fill="black"/>
<path d="M290.585 109.951H282.732V117.805H290.585V109.951Z" fill="black"/>
<path d="M314.146 109.951H306.293V117.805H314.146V109.951Z" fill="black"/>
<path d="M31.4146 117.805H23.561V125.659H31.4146V117.805Z" fill="black"/>
<path d="M39.2683 117.805H31.4146V125.659H39.2683V117.805Z" fill="black"/>
<path d="M62.8293 117.805H54.9756V125.659H62.8293V117.805Z" fill="black"/>
<path d="M78.5366 117.805H70.6829V125.659H78.5366V117.805Z" fill="black"/>
<path d="M94.2439 117.805H86.3903V125.659H94.2439V117.805Z" fill="black"/>
<path d="M102.098 117.805H94.2439V125.659H102.098V117.805Z" fill="black"/>
<path d="M109.951 117.805H102.098V125.659H109.951V117.805Z" fill="black"/>
<path d="M149.22 117.805H141.366V125.659H149.22V117.805Z" fill="black"/>
<path d="M164.927 117.805H157.073V125.659H164.927V117.805Z" fill="black"/>
<path d="M180.634 117.805H172.781V125.659H180.634V117.805Z" fill="black"/>
<path d="M188.488 117.805H180.634V125.659H188.488V117.805Z" fill="black"/>
<path d="M196.341 117.805H188.488V125.659H196.341V117.805Z" fill="black"/>
<path d="M204.195 117.805H196.341V125.659H204.195V117.805Z" fill="black"/>
<path d="M212.049 117.805H204.195V125.659H212.049V117.805Z" fill="black"/>
<path d="M243.463 117.805H235.61V125.659H243.463V117.805Z" fill="black"/>
<path d="M251.317 117.805H243.463V125.659H251.317V117.805Z" fill="black"/>
<path d="M259.171 117.805H251.317V125.659H259.171V117.805Z" fill="black"/>
<path d="M267.024 117.805H259.171V125.659H267.024V117.805Z" fill="black"/>
<path d="M274.878 117.805H267.024V125.659H274.878V117.805Z" fill="black"/>
<path d="M282.732 117.805H274.878V125.659H282.732V117.805Z" fill="black"/>
<path d="M298.439 117.805H290.585V125.659H298.439V117.805Z" fill="black"/>
<path d="M306.293 117.805H298.439V125.659H306.293V117.805Z" fill="black"/>
<path d="M314.146 117.805H306.293V125.659H314.146V117.805Z" fill="black"/>
<path d="M322 117.805H314.146V125.659H322V117.805Z" fill="black"/>
<path d="M7.85366 125.659H0V133.512H7.85366V125.659Z" fill="black"/>
<path d="M23.561 125.659H15.7073V133.512H23.561V125.659Z" fill="black"/>
<path d="M31.4146 125.659H23.561V133.512H31.4146V125.659Z" fill="black"/>
<path d="M54.9756 125.659H47.122V133.512H54.9756V125.659Z" fill="black"/>
<path d="M62.8293 125.659H54.9756V133.512H62.8293V125.659Z" fill="black"/>
<path d="M70.6829 125.659H62.8293V133.512H70.6829V125.659Z" fill="black"/>
<path d="M78.5366 125.659H70.6829V133.512H78.5366V125.659Z" fill="black"/>
<path d="M94.2439 125.659H86.3903V133.512H94.2439V125.659Z" fill="black"/>
<path d="M109.951 125.659H102.098V133.512H109.951V125.659Z" fill="black"/>
<path d="M117.805 125.659H109.951V133.512H117.805V125.659Z" fill="black"/>
<path d="M125.659 125.659H117.805V133.512H125.659V125.659Z" fill="black"/>
<path d="M133.512 125.659H125.659V133.512H133.512V125.659Z" fill="black"/>
<path d="M141.366 125.659H133.512V133.512H141.366V125.659Z" fill="black"/>
<path d="M164.927 125.659H157.073V133.512H164.927V125.659Z" fill="black"/>
<path d="M204.195 125.659H196.341V133.512H204.195V125.659Z" fill="black"/>
<path d="M219.902 125.659H212.049V133.512H219.902V125.659Z" fill="black"/>
<path d="M227.756 125.659H219.902V133.512H227.756V125.659Z" fill="black"/>
<path d="M243.463 125.659H235.61V133.512H243.463V125.659Z" fill="black"/>
<path d="M282.732 125.659H274.878V133.512H282.732V125.659Z" fill="black"/>
<path d="M290.585 125.659H282.732V133.512H290.585V125.659Z" fill="black"/>
<path d="M23.561 133.512H15.7073V141.366H23.561V133.512Z" fill="black"/>
<path d="M31.4146 133.512H23.561V141.366H31.4146V133.512Z" fill="black"/>
<path d="M39.2683 133.512H31.4146V141.366H39.2683V133.512Z" fill="black"/>
<path d="M62.8293 133.512H54.9756V141.366H62.8293V133.512Z" fill="black"/>
<path d="M70.6829 133.512H62.8293V141.366H70.6829V133.512Z" fill="black"/>
<path d="M94.2439 133.512H86.3903V141.366H94.2439V133.512Z" fill="black"/>
<path d="M102.098 133.512H94.2439V141.366H102.098V133.512Z" fill="black"/>
<path d="M117.805 133.512H109.951V141.366H117.805V133.512Z" fill="black"/>
<path d="M125.659 133.512H117.805V141.366H125.659V133.512Z" fill="black"/>
<path d="M133.512 133.512H125.659V141.366H133.512V133.512Z" fill="black"/>
<path d="M141.366 133.512H133.512V141.366H141.366V133.512Z" fill="black"/>
<path d="M172.781 133.512H164.927V141.366H172.781V133.512Z" fill="black"/>
<path d="M188.488 133.512H180.634V141.366H188.488V133.512Z" fill="black"/>
<path d="M196.341 133.512H188.488V141.366H196.341V133.512Z" fill="black"/>
<path d="M219.902 133.512H212.049V141.366H219.902V133.512Z" fill="black"/>
<path d="M227.756 133.512H219.902V141.366H227.756V133.512Z" fill="black"/>
<path d="M251.317 133.512H243.463V141.366H251.317V133.512Z" fill="black"/>
<path d="M259.171 133.512H251.317V141.366H259.171V133.512Z" fill="black"/>
<path d="M274.878 133.512H267.024V141.366H274.878V133.512Z" fill="black"/>
<path d="M282.732 133.512H274.878V141.366H282.732V133.512Z" fill="black"/>
<path d="M306.293 133.512H298.439V141.366H306.293V133.512Z" fill="black"/>
<path d="M322 133.512H314.146V141.366H322V133.512Z" fill="black"/>
<path d="M7.85366 141.366H0V149.22H7.85366V141.366Z" fill="black"/>
<path d="M15.7073 141.366H7.85366V149.22H15.7073V141.366Z" fill="black"/>
<path d="M23.561 141.366H15.7073V149.22H23.561V141.366Z" fill="black"/>
<path d="M54.9756 141.366H47.122V149.22H54.9756V141.366Z" fill="black"/>
<path d="M62.8293 141.366H54.9756V149.22H62.8293V141.366Z" fill="black"/>
<path d="M70.6829 141.366H62.8293V149.22H70.6829V141.366Z" fill="black"/>
<path d="M78.5366 141.366H70.6829V149.22H78.5366V141.366Z" fill="black"/>
<path d="M94.2439 141.366H86.3903V149.22H94.2439V141.366Z" fill="black"/>
<path d="M102.098 141.366H94.2439V149.22H102.098V141.366Z" fill="black"/>
<path d="M125.659 141.366H117.805V149.22H125.659V141.366Z" fill="black"/>
<path d="M149.22 141.366H141.366V149.22H149.22V141.366Z" fill="black"/>
<path d="M172.781 141.366H164.927V149.22H172.781V141.366Z" fill="black"/>
<path d="M180.634 141.366H172.781V149.22H180.634V141.366Z" fill="black"/>
<path d="M188.488 141.366H180.634V149.22H188.488V141.366Z" fill="black"/>
<path d="M204.195 141.366H196.341V149.22H204.195V141.366Z" fill="black"/>
<path d="M212.049 141.366H204.195V149.22H212.049V141.366Z" fill="black"/>
<path d="M219.902 141.366H212.049V149.22H219.902V141.366Z" fill="black"/>
<path d="M267.024 141.366H259.171V149.22H267.024V141.366Z" fill="black"/>
<path d="M282.732 141.366H274.878V149.22H282.732V141.366Z" fill="black"/>
<path d="M290.585 141.366H282.732V149.22H290.585V141.366Z" fill="black"/>
<path d="M306.293 141.366H298.439V149.22H306.293V141.366Z" fill="black"/>
<path d="M15.7073 149.22H7.85366V157.073H15.7073V149.22Z" fill="black"/>
<path d="M31.4146 149.22H23.561V157.073H31.4146V149.22Z" fill="black"/>
<path d="M47.122 149.22H39.2683V157.073H47.122V149.22Z" fill="black"/>
<path d="M70.6829 149.22H62.8293V157.073H70.6829V149.22Z" fill="black"/>
<path d="M94.2439 149.22H86.3903V157.073H94.2439V149.22Z" fill="black"/>
<path d="M109.951 149.22H102.098V157.073H109.951V149.22Z" fill="black"/>
<path d="M117.805 149.22H109.951V157.073H117.805V149.22Z" fill="black"/>
<path d="M125.659 149.22H117.805V157.073H125.659V149.22Z" fill="black"/>
<path d="M157.073 149.22H149.22V157.073H157.073V149.22Z" fill="black"/>
<path d="M164.927 149.22H157.073V157.073H164.927V149.22Z" fill="black"/>
<path d="M188.488 149.22H180.634V157.073H188.488V149.22Z" fill="black"/>
<path d="M196.341 149.22H188.488V157.073H196.341V149.22Z" fill="black"/>
<path d="M219.902 149.22H212.049V157.073H219.902V149.22Z" fill="black"/>
<path d="M227.756 149.22H219.902V157.073H227.756V149.22Z" fill="black"/>
<path d="M235.61 149.22H227.756V157.073H235.61V149.22Z" fill="black"/>
<path d="M259.171 149.22H251.317V157.073H259.171V149.22Z" fill="black"/>
<path d="M322 149.22H314.146V157.073H322V149.22Z" fill="black"/>
<path d="M15.7073 157.073H7.85366V164.927H15.7073V157.073Z" fill="black"/>
<path d="M31.4146 157.073H23.561V164.927H31.4146V157.073Z" fill="black"/>
<path d="M39.2683 157.073H31.4146V164.927H39.2683V157.073Z" fill="black"/>
<path d="M54.9756 157.073H47.122V164.927H54.9756V157.073Z" fill="black"/>
<path d="M70.6829 157.073H62.8293V164.927H70.6829V157.073Z" fill="black"/>
<path d="M86.3903 157.073H78.5366V164.927H86.3903V157.073Z" fill="black"/>
<path d="M94.2439 157.073H86.3903V164.927H94.2439V157.073Z" fill="black"/>
<path d="M102.098 157.073H94.2439V164.927H102.098V157.073Z" fill="black"/>
<path d="M125.659 157.073H117.805V164.927H125.659V157.073Z" fill="black"/>
<path d="M133.512 157.073H125.659V164.927H133.512V157.073Z" fill="black"/>
<path d="M149.22 157.073H141.366V164.927H149.22V157.073Z" fill="black"/>
<path d="M164.927 157.073H157.073V164.927H164.927V157.073Z" fill="black"/>
<path d="M196.341 157.073H188.488V164.927H196.341V157.073Z" fill="black"/>
<path d="M212.049 157.073H204.195V164.927H212.049V157.073Z" fill="black"/>
<path d="M235.61 157.073H227.756V164.927H235.61V157.073Z" fill="black"/>
<path d="M243.463 157.073H235.61V164.927H243.463V157.073Z" fill="black"/>
<path d="M274.878 157.073H267.024V164.927H274.878V157.073Z" fill="black"/>
<path d="M282.732 157.073H274.878V164.927H282.732V157.073Z" fill="black"/>
<path d="M298.439 157.073H290.585V164.927H298.439V157.073Z" fill="black"/>
<path d="M306.293 157.073H298.439V164.927H306.293V157.073Z" fill="black"/>
<path d="M322 157.073H314.146V164.927H322V157.073Z" fill="black"/>
<path d="M7.85366 164.927H0V172.781H7.85366V164.927Z" fill="black"/>
<path d="M15.7073 164.927H7.85366V172.781H15.7073V164.927Z" fill="black"/>
<path d="M31.4146 164.927H23.561V172.781H31.4146V164.927Z" fill="black"/>
<path d="M39.2683 164.927H31.4146V172.781H39.2683V164.927Z" fill="black"/>
<path d="M62.8293 164.927H54.9756V172.781H62.8293V164.927Z" fill="black"/>
<path d="M70.6829 164.927H62.8293V172.781H70.6829V164.927Z" fill="black"/>
<path d="M78.5366 164.927H70.6829V172.781H78.5366V164.927Z" fill="black"/>
<path d="M94.2439 164.927H86.3903V172.781H94.2439V164.927Z" fill="black"/>
<path d="M102.098 164.927H94.2439V172.781H102.098V164.927Z" fill="black"/>
<path d="M125.659 164.927H117.805V172.781H125.659V164.927Z" fill="black"/>
<path d="M133.512 164.927H125.659V172.781H133.512V164.927Z" fill="black"/>
<path d="M149.22 164.927H141.366V172.781H149.22V164.927Z" fill="black"/>
<path d="M157.073 164.927H149.22V172.781H157.073V164.927Z" fill="black"/>
<path d="M180.634 164.927H172.781V172.781H180.634V164.927Z" fill="black"/>
<path d="M188.488 164.927H180.634V172.781H188.488V164.927Z" fill="black"/>
<path d="M196.341 164.927H188.488V172.781H196.341V164.927Z" fill="black"/>
<path d="M204.195 164.927H196.341V172.781H204.195V164.927Z" fill="black"/>
<path d="M212.049 164.927H204.195V172.781H212.049V164.927Z" fill="black"/>
<path d="M219.902 164.927H212.049V172.781H219.902V164.927Z" fill="black"/>
<path d="M227.756 164.927H219.902V172.781H227.756V164.927Z" fill="black"/>
<path d="M243.463 164.927H235.61V172.781H243.463V164.927Z" fill="black"/>
<path d="M251.317 164.927H243.463V172.781H251.317V164.927Z" fill="black"/>
<path d="M259.171 164.927H251.317V172.781H259.171V164.927Z" fill="black"/>
<path d="M267.024 164.927H259.171V172.781H267.024V164.927Z" fill="black"/>
<path d="M298.439 164.927H290.585V172.781H298.439V164.927Z" fill="black"/>
<path d="M314.146 164.927H306.293V172.781H314.146V164.927Z" fill="black"/>
<path d="M322 164.927H314.146V172.781H322V164.927Z" fill="black"/>
<path d="M7.85366 172.781H0V180.634H7.85366V172.781Z" fill="black"/>
<path d="M15.7073 172.781H7.85366V180.634H15.7073V172.781Z" fill="black"/>
<path d="M23.561 172.781H15.7073V180.634H23.561V172.781Z" fill="black"/>
<path d="M47.122 172.781H39.2683V180.634H47.122V172.781Z" fill="black"/>
<path d="M54.9756 172.781H47.122V180.634H54.9756V172.781Z" fill="black"/>
<path d="M62.8293 172.781H54.9756V180.634H62.8293V172.781Z" fill="black"/>
<path d="M70.6829 172.781H62.8293V180.634H70.6829V172.781Z" fill="black"/>
<path d="M86.3903 172.781H78.5366V180.634H86.3903V172.781Z" fill="black"/>
<path d="M94.2439 172.781H86.3903V180.634H94.2439V172.781Z" fill="black"/>
<path d="M109.951 172.781H102.098V180.634H109.951V172.781Z" fill="black"/>
<path d="M117.805 172.781H109.951V180.634H117.805V172.781Z" fill="black"/>
<path d="M133.512 172.781H125.659V180.634H133.512V172.781Z" fill="black"/>
<path d="M141.366 172.781H133.512V180.634H141.366V172.781Z" fill="black"/>
<path d="M149.22 172.781H141.366V180.634H149.22V172.781Z" fill="black"/>
<path d="M172.781 172.781H164.927V180.634H172.781V172.781Z" fill="black"/>
<path d="M212.049 172.781H204.195V180.634H212.049V172.781Z" fill="black"/>
<path d="M227.756 172.781H219.902V180.634H227.756V172.781Z" fill="black"/>
<path d="M235.61 172.781H227.756V180.634H235.61V172.781Z" fill="black"/>
<path d="M243.463 172.781H235.61V180.634H243.463V172.781Z" fill="black"/>
<path d="M251.317 172.781H243.463V180.634H251.317V172.781Z" fill="black"/>
<path d="M267.024 172.781H259.171V180.634H267.024V172.781Z" fill="black"/>
<path d="M282.732 172.781H274.878V180.634H282.732V172.781Z" fill="black"/>
<path d="M290.585 172.781H282.732V180.634H290.585V172.781Z" fill="black"/>
<path d="M314.146 172.781H306.293V180.634H314.146V172.781Z" fill="black"/>
<path d="M322 172.781H314.146V180.634H322V172.781Z" fill="black"/>
<path d="M7.85366 180.634H0V188.488H7.85366V180.634Z" fill="black"/>
<path d="M23.561 180.634H15.7073V188.488H23.561V180.634Z" fill="black"/>
<path d="M31.4146 180.634H23.561V188.488H31.4146V180.634Z" fill="black"/>
<path d="M78.5366 180.634H70.6829V188.488H78.5366V180.634Z" fill="black"/>
<path d="M86.3903 180.634H78.5366V188.488H86.3903V180.634Z" fill="black"/>
<path d="M117.805 180.634H109.951V188.488H117.805V180.634Z" fill="black"/>
<path d="M125.659 180.634H117.805V188.488H125.659V180.634Z" fill="black"/>
<path d="M141.366 180.634H133.512V188.488H141.366V180.634Z" fill="black"/>
<path d="M149.22 180.634H141.366V188.488H149.22V180.634Z" fill="black"/>
<path d="M164.927 180.634H157.073V188.488H164.927V180.634Z" fill="black"/>
<path d="M180.634 180.634H172.781V188.488H180.634V180.634Z" fill="black"/>
<path d="M188.488 180.634H180.634V188.488H188.488V180.634Z" fill="black"/>
<path d="M204.195 180.634H196.341V188.488H204.195V180.634Z" fill="black"/>
<path d="M212.049 180.634H204.195V188.488H212.049V180.634Z" fill="black"/>
<path d="M227.756 180.634H219.902V188.488H227.756V180.634Z" fill="black"/>
<path d="M259.171 180.634H251.317V188.488H259.171V180.634Z" fill="black"/>
<path d="M267.024 180.634H259.171V188.488H267.024V180.634Z" fill="black"/>
<path d="M274.878 180.634H267.024V188.488H274.878V180.634Z" fill="black"/>
<path d="M298.439 180.634H290.585V188.488H298.439V180.634Z" fill="black"/>
<path d="M306.293 180.634H298.439V188.488H306.293V180.634Z" fill="black"/>
<path d="M314.146 180.634H306.293V188.488H314.146V180.634Z" fill="black"/>
<path d="M322 180.634H314.146V188.488H322V180.634Z" fill="black"/>
<path d="M23.561 188.488H15.7073V196.341H23.561V188.488Z" fill="black"/>
<path d="M31.4146 188.488H23.561V196.341H31.4146V188.488Z" fill="black"/>
<path d="M47.122 188.488H39.2683V196.341H47.122V188.488Z" fill="black"/>
<path d="M54.9756 188.488H47.122V196.341H54.9756V188.488Z" fill="black"/>
<path d="M70.6829 188.488H62.8293V196.341H70.6829V188.488Z" fill="black"/>
<path d="M86.3903 188.488H78.5366V196.341H86.3903V188.488Z" fill="black"/>
<path d="M94.2439 188.488H86.3903V196.341H94.2439V188.488Z" fill="black"/>
<path d="M109.951 188.488H102.098V196.341H109.951V188.488Z" fill="black"/>
<path d="M117.805 188.488H109.951V196.341H117.805V188.488Z" fill="black"/>
<path d="M149.22 188.488H141.366V196.341H149.22V188.488Z" fill="black"/>
<path d="M157.073 188.488H149.22V196.341H157.073V188.488Z" fill="black"/>
<path d="M164.927 188.488H157.073V196.341H164.927V188.488Z" fill="black"/>
<path d="M180.634 188.488H172.781V196.341H180.634V188.488Z" fill="black"/>
<path d="M196.341 188.488H188.488V196.341H196.341V188.488Z" fill="black"/>
<path d="M212.049 188.488H204.195V196.341H212.049V188.488Z" fill="black"/>
<path d="M219.902 188.488H212.049V196.341H219.902V188.488Z" fill="black"/>
<path d="M227.756 188.488H219.902V196.341H227.756V188.488Z" fill="black"/>
<path d="M251.317 188.488H243.463V196.341H251.317V188.488Z" fill="black"/>
<path d="M267.024 188.488H259.171V196.341H267.024V188.488Z" fill="black"/>
<path d="M274.878 188.488H267.024V196.341H274.878V188.488Z" fill="black"/>
<path d="M282.732 188.488H274.878V196.341H282.732V188.488Z" fill="black"/>
<path d="M290.585 188.488H282.732V196.341H290.585V188.488Z" fill="black"/>
<path d="M306.293 188.488H298.439V196.341H306.293V188.488Z" fill="black"/>
<path d="M322 188.488H314.146V196.341H322V188.488Z" fill="black"/>
<path d="M7.85366 196.341H0V204.195H7.85366V196.341Z" fill="black"/>
<path d="M15.7073 196.341H7.85366V204.195H15.7073V196.341Z" fill="black"/>
<path d="M86.3903 196.341H78.5366V204.195H86.3903V196.341Z" fill="black"/>
<path d="M102.098 196.341H94.2439V204.195H102.098V196.341Z" fill="black"/>
<path d="M149.22 196.341H141.366V204.195H149.22V196.341Z" fill="black"/>
<path d="M157.073 196.341H149.22V204.195H157.073V196.341Z" fill="black"/>
<path d="M164.927 196.341H157.073V204.195H164.927V196.341Z" fill="black"/>
<path d="M172.781 196.341H164.927V204.195H172.781V196.341Z" fill="black"/>
<path d="M180.634 196.341H172.781V204.195H180.634V196.341Z" fill="black"/>
<path d="M227.756 196.341H219.902V204.195H227.756V196.341Z" fill="black"/>
<path d="M235.61 196.341H227.756V204.195H235.61V196.341Z" fill="black"/>
<path d="M267.024 196.341H259.171V204.195H267.024V196.341Z" fill="black"/>
<path d="M290.585 196.341H282.732V204.195H290.585V196.341Z" fill="black"/>
<path d="M306.293 196.341H298.439V204.195H306.293V196.341Z" fill="black"/>
<path d="M7.85366 204.195H0V212.049H7.85366V204.195Z" fill="black"/>
<path d="M15.7073 204.195H7.85366V212.049H15.7073V204.195Z" fill="black"/>
<path d="M23.561 204.195H15.7073V212.049H23.561V204.195Z" fill="black"/>
<path d="M54.9756 204.195H47.122V212.049H54.9756V204.195Z" fill="black"/>
<path d="M78.5366 204.195H70.6829V212.049H78.5366V204.195Z" fill="black"/>
<path d="M94.2439 204.195H86.3903V212.049H94.2439V204.195Z" fill="black"/>
<path d="M109.951 204.195H102.098V212.049H109.951V204.195Z" fill="black"/>
<path d="M125.659 204.195H117.805V212.049H125.659V204.195Z" fill="black"/>
<path d="M141.366 204.195H133.512V212.049H141.366V204.195Z" fill="black"/>
<path d="M149.22 204.195H141.366V212.049H149.22V204.195Z" fill="black"/>
<path d="M172.781 204.195H164.927V212.049H172.781V204.195Z" fill="black"/>
<path d="M180.634 204.195H172.781V212.049H180.634V204.195Z" fill="black"/>
<path d="M188.488 204.195H180.634V212.049H188.488V204.195Z" fill="black"/>
<path d="M204.195 204.195H196.341V212.049H204.195V204.195Z" fill="black"/>
<path d="M219.902 204.195H212.049V212.049H219.902V204.195Z" fill="black"/>
<path d="M243.463 204.195H235.61V212.049H243.463V204.195Z" fill="black"/>
<path d="M251.317 204.195H243.463V212.049H251.317V204.195Z" fill="black"/>
<path d="M282.732 204.195H274.878V212.049H282.732V204.195Z" fill="black"/>
<path d="M290.585 204.195H282.732V212.049H290.585V204.195Z" fill="black"/>
<path d="M306.293 204.195H298.439V212.049H306.293V204.195Z" fill="black"/>
<path d="M314.146 204.195H306.293V212.049H314.146V204.195Z" fill="black"/>
<path d="M7.85366 212.049H0V219.902H7.85366V212.049Z" fill="black"/>
<path d="M31.4146 212.049H23.561V219.902H31.4146V212.049Z" fill="black"/>
<path d="M39.2683 212.049H31.4146V219.902H39.2683V212.049Z" fill="black"/>
<path d="M78.5366 212.049H70.6829V219.902H78.5366V212.049Z" fill="black"/>
<path d="M86.3903 212.049H78.5366V219.902H86.3903V212.049Z" fill="black"/>
<path d="M94.2439 212.049H86.3903V219.902H94.2439V212.049Z" fill="black"/>
<path d="M133.512 212.049H125.659V219.902H133.512V212.049Z" fill="black"/>
<path d="M141.366 212.049H133.512V219.902H141.366V212.049Z" fill="black"/>
<path d="M149.22 212.049H141.366V219.902H149.22V212.049Z" fill="black"/>
<path d="M164.927 212.049H157.073V219.902H164.927V212.049Z" fill="black"/>
<path d="M180.634 212.049H172.781V219.902H180.634V212.049Z" fill="black"/>
<path d="M188.488 212.049H180.634V219.902H188.488V212.049Z" fill="black"/>
<path d="M204.195 212.049H196.341V219.902H204.195V212.049Z" fill="black"/>
<path d="M212.049 212.049H204.195V219.902H212.049V212.049Z" fill="black"/>
<path d="M243.463 212.049H235.61V219.902H243.463V212.049Z" fill="black"/>
<path d="M251.317 212.049H243.463V219.902H251.317V212.049Z" fill="black"/>
<path d="M267.024 212.049H259.171V219.902H267.024V212.049Z" fill="black"/>
<path d="M274.878 212.049H267.024V219.902H274.878V212.049Z" fill="black"/>
<path d="M282.732 212.049H274.878V219.902H282.732V212.049Z" fill="black"/>
<path d="M306.293 212.049H298.439V219.902H306.293V212.049Z" fill="black"/>
<path d="M314.146 212.049H306.293V219.902H314.146V212.049Z" fill="black"/>
<path d="M322 212.049H314.146V219.902H322V212.049Z" fill="black"/>
<path d="M7.85366 219.902H0V227.756H7.85366V219.902Z" fill="black"/>
<path d="M31.4146 219.902H23.561V227.756H31.4146V219.902Z" fill="black"/>
<path d="M39.2683 219.902H31.4146V227.756H39.2683V219.902Z" fill="black"/>
<path d="M47.122 219.902H39.2683V227.756H47.122V219.902Z" fill="black"/>
<path d="M54.9756 219.902H47.122V227.756H54.9756V219.902Z" fill="black"/>
<path d="M109.951 219.902H102.098V227.756H109.951V219.902Z" fill="black"/>
<path d="M117.805 219.902H109.951V227.756H117.805V219.902Z" fill="black"/>
<path d="M133.512 219.902H125.659V227.756H133.512V219.902Z" fill="black"/>
<path d="M141.366 219.902H133.512V227.756H141.366V219.902Z" fill="black"/>
<path d="M172.781 219.902H164.927V227.756H172.781V219.902Z" fill="black"/>
<path d="M180.634 219.902H172.781V227.756H180.634V219.902Z" fill="black"/>
<path d="M204.195 219.902H196.341V227.756H204.195V219.902Z" fill="black"/>
<path d="M212.049 219.902H204.195V227.756H212.049V219.902Z" fill="black"/>
<path d="M227.756 219.902H219.902V227.756H227.756V219.902Z" fill="black"/>
<path d="M251.317 219.902H243.463V227.756H251.317V219.902Z" fill="black"/>
<path d="M274.878 219.902H267.024V227.756H274.878V219.902Z" fill="black"/>
<path d="M290.585 219.902H282.732V227.756H290.585V219.902Z" fill="black"/>
<path d="M298.439 219.902H290.585V227.756H298.439V219.902Z" fill="black"/>
<path d="M322 219.902H314.146V227.756H322V219.902Z" fill="black"/>
<path d="M7.85366 227.756H0V235.61H7.85366V227.756Z" fill="black"/>
<path d="M15.7073 227.756H7.85366V235.61H15.7073V227.756Z" fill="black"/>
<path d="M31.4146 227.756H23.561V235.61H31.4146V227.756Z" fill="black"/>
<path d="M62.8293 227.756H54.9756V235.61H62.8293V227.756Z" fill="black"/>
<path d="M70.6829 227.756H62.8293V235.61H70.6829V227.756Z" fill="black"/>
<path d="M94.2439 227.756H86.3903V235.61H94.2439V227.756Z" fill="black"/>
<path d="M102.098 227.756H94.2439V235.61H102.098V227.756Z" fill="black"/>
<path d="M109.951 227.756H102.098V235.61H109.951V227.756Z" fill="black"/>
<path d="M117.805 227.756H109.951V235.61H117.805V227.756Z" fill="black"/>
<path d="M125.659 227.756H117.805V235.61H125.659V227.756Z" fill="black"/>
<path d="M149.22 227.756H141.366V235.61H149.22V227.756Z" fill="black"/>
<path d="M157.073 227.756H149.22V235.61H157.073V227.756Z" fill="black"/>
<path d="M188.488 227.756H180.634V235.61H188.488V227.756Z" fill="black"/>
<path d="M196.341 227.756H188.488V235.61H196.341V227.756Z" fill="black"/>
<path d="M219.902 227.756H212.049V235.61H219.902V227.756Z" fill="black"/>
<path d="M227.756 227.756H219.902V235.61H227.756V227.756Z" fill="black"/>
<path d="M235.61 227.756H227.756V235.61H235.61V227.756Z" fill="black"/>
<path d="M251.317 227.756H243.463V235.61H251.317V227.756Z" fill="black"/>
<path d="M259.171 227.756H251.317V235.61H259.171V227.756Z" fill="black"/>
<path d="M267.024 227.756H259.171V235.61H267.024V227.756Z" fill="black"/>
<path d="M298.439 227.756H290.585V235.61H298.439V227.756Z" fill="black"/>
<path d="M306.293 227.756H298.439V235.61H306.293V227.756Z" fill="black"/>
<path d="M314.146 227.756H306.293V235.61H314.146V227.756Z" fill="black"/>
<path d="M322 227.756H314.146V235.61H322V227.756Z" fill="black"/>
<path d="M31.4146 235.61H23.561V243.463H31.4146V235.61Z" fill="black"/>
<path d="M39.2683 235.61H31.4146V243.463H39.2683V235.61Z" fill="black"/>
<path d="M54.9756 235.61H47.122V243.463H54.9756V235.61Z" fill="black"/>
<path d="M86.3903 235.61H78.5366V243.463H86.3903V235.61Z" fill="black"/>
<path d="M102.098 235.61H94.2439V243.463H102.098V235.61Z" fill="black"/>
<path d="M125.659 235.61H117.805V243.463H125.659V235.61Z" fill="black"/>
<path d="M141.366 235.61H133.512V243.463H141.366V235.61Z" fill="black"/>
<path d="M157.073 235.61H149.22V243.463H157.073V235.61Z" fill="black"/>
<path d="M164.927 235.61H157.073V243.463H164.927V235.61Z" fill="black"/>
<path d="M204.195 235.61H196.341V243.463H204.195V235.61Z" fill="black"/>
<path d="M212.049 235.61H204.195V243.463H212.049V235.61Z" fill="black"/>
<path d="M227.756 235.61H219.902V243.463H227.756V235.61Z" fill="black"/>
<path d="M235.61 235.61H227.756V243.463H235.61V235.61Z" fill="black"/>
<path d="M243.463 235.61H235.61V243.463H243.463V235.61Z" fill="black"/>
<path d="M274.878 235.61H267.024V243.463H274.878V235.61Z" fill="black"/>
<path d="M298.439 235.61H290.585V243.463H298.439V235.61Z" fill="black"/>
<path d="M314.146 235.61H306.293V243.463H314.146V235.61Z" fill="black"/>
<path d="M7.85366 243.463H0V251.317H7.85366V243.463Z" fill="black"/>
<path d="M15.7073 243.463H7.85366V251.317H15.7073V243.463Z" fill="black"/>
<path d="M47.122 243.463H39.2683V251.317H47.122V243.463Z" fill="black"/>
<path d="M70.6829 243.463H62.8293V251.317H70.6829V243.463Z" fill="black"/>
<path d="M94.2439 243.463H86.3903V251.317H94.2439V243.463Z" fill="black"/>
<path d="M109.951 243.463H102.098V251.317H109.951V243.463Z" fill="black"/>
<path d="M133.512 243.463H125.659V251.317H133.512V243.463Z" fill="black"/>
<path d="M157.073 243.463H149.22V251.317H157.073V243.463Z" fill="black"/>
<path d="M196.341 243.463H188.488V251.317H196.341V243.463Z" fill="black"/>
<path d="M219.902 243.463H212.049V251.317H219.902V243.463Z" fill="black"/>
<path d="M235.61 243.463H227.756V251.317H235.61V243.463Z" fill="black"/>
<path d="M243.463 243.463H235.61V251.317H243.463V243.463Z" fill="black"/>
<path d="M251.317 243.463H243.463V251.317H251.317V243.463Z" fill="black"/>
<path d="M274.878 243.463H267.024V251.317H274.878V243.463Z" fill="black"/>
<path d="M282.732 243.463H274.878V251.317H282.732V243.463Z" fill="black"/>
<path d="M290.585 243.463H282.732V251.317H290.585V243.463Z" fill="black"/>
<path d="M298.439 243.463H290.585V251.317H298.439V243.463Z" fill="black"/>
<path d="M54.9756 251.317H47.122V259.171H54.9756V251.317Z" fill="black"/>
<path d="M70.6829 251.317H62.8293V259.171H70.6829V251.317Z" fill="black"/>
<path d="M86.3903 251.317H78.5366V259.171H86.3903V251.317Z" fill="black"/>
<path d="M94.2439 251.317H86.3903V259.171H94.2439V251.317Z" fill="black"/>
<path d="M109.951 251.317H102.098V259.171H109.951V251.317Z" fill="black"/>
<path d="M117.805 251.317H109.951V259.171H117.805V251.317Z" fill="black"/>
<path d="M133.512 251.317H125.659V259.171H133.512V251.317Z" fill="black"/>
<path d="M180.634 251.317H172.781V259.171H180.634V251.317Z" fill="black"/>
<path d="M196.341 251.317H188.488V259.171H196.341V251.317Z" fill="black"/>
<path d="M204.195 251.317H196.341V259.171H204.195V251.317Z" fill="black"/>
<path d="M212.049 251.317H204.195V259.171H212.049V251.317Z" fill="black"/>
<path d="M219.902 251.317H212.049V259.171H219.902V251.317Z" fill="black"/>
<path d="M227.756 251.317H219.902V259.171H227.756V251.317Z" fill="black"/>
<path d="M251.317 251.317H243.463V259.171H251.317V251.317Z" fill="black"/>
<path d="M259.171 251.317H251.317V259.171H259.171V251.317Z" fill="black"/>
<path d="M267.024 251.317H259.171V259.171H267.024V251.317Z" fill="black"/>
<path d="M274.878 251.317H267.024V259.171H274.878V251.317Z" fill="black"/>
<path d="M282.732 251.317H274.878V259.171H282.732V251.317Z" fill="black"/>
<path d="M290.585 251.317H282.732V259.171H290.585V251.317Z" fill="black"/>
<path d="M298.439 251.317H290.585V259.171H298.439V251.317Z" fill="black"/>
<path d="M306.293 251.317H298.439V259.171H306.293V251.317Z" fill="black"/>
<path d="M314.146 251.317H306.293V259.171H314.146V251.317Z" fill="black"/>
<path d="M322 251.317H314.146V259.171H322V251.317Z" fill="black"/>
<path d="M70.6829 259.171H62.8293V267.024H70.6829V259.171Z" fill="black"/>
<path d="M78.5366 259.171H70.6829V267.024H78.5366V259.171Z" fill="black"/>
<path d="M94.2439 259.171H86.3903V267.024H94.2439V259.171Z" fill="black"/>
<path d="M102.098 259.171H94.2439V267.024H102.098V259.171Z" fill="black"/>
<path d="M117.805 259.171H109.951V267.024H117.805V259.171Z" fill="black"/>
<path d="M141.366 259.171H133.512V267.024H141.366V259.171Z" fill="black"/>
<path d="M172.781 259.171H164.927V267.024H172.781V259.171Z" fill="black"/>
<path d="M180.634 259.171H172.781V267.024H180.634V259.171Z" fill="black"/>
<path d="M196.341 259.171H188.488V267.024H196.341V259.171Z" fill="black"/>
<path d="M212.049 259.171H204.195V267.024H212.049V259.171Z" fill="black"/>
<path d="M235.61 259.171H227.756V267.024H235.61V259.171Z" fill="black"/>
<path d="M243.463 259.171H235.61V267.024H243.463V259.171Z" fill="black"/>
<path d="M251.317 259.171H243.463V267.024H251.317V259.171Z" fill="black"/>
<path d="M259.171 259.171H251.317V267.024H259.171V259.171Z" fill="black"/>
<path d="M290.585 259.171H282.732V267.024H290.585V259.171Z" fill="black"/>
<path d="M306.293 259.171H298.439V267.024H306.293V259.171Z" fill="black"/>
<path d="M314.146 259.171H306.293V267.024H314.146V259.171Z" fill="black"/>
<path d="M322 259.171H314.146V267.024H322V259.171Z" fill="black"/>
<path d="M7.85366 267.024H0V274.878H7.85366V267.024Z" fill="black"/>
<path d="M15.7073 267.024H7.85366V274.878H15.7073V267.024Z" fill="black"/>
<path d="M23.561 267.024H15.7073V274.878H23.561V267.024Z" fill="black"/>
<path d="M31.4146 267.024H23.561V274.878H31.4146V267.024Z" fill="black"/>
<path d="M39.2683 267.024H31.4146V274.878H39.2683V267.024Z" fill="black"/>
<path d="M47.122 267.024H39.2683V274.878H47.122V267.024Z" fill="black"/>
<path d="M54.9756 267.024H47.122V274.878H54.9756V267.024Z" fill="black"/>
<path d="M70.6829 267.024H62.8293V274.878H70.6829V267.024Z" fill="black"/>
<path d="M78.5366 267.024H70.6829V274.878H78.5366V267.024Z" fill="black"/>
<path d="M102.098 267.024H94.2439V274.878H102.098V267.024Z" fill="black"/>
<path d="M117.805 267.024H109.951V274.878H117.805V267.024Z" fill="black"/>
<path d="M141.366 267.024H133.512V274.878H141.366V267.024Z" fill="black"/>
<path d="M172.781 267.024H164.927V274.878H172.781V267.024Z" fill="black"/>
<path d="M188.488 267.024H180.634V274.878H188.488V267.024Z" fill="black"/>
<path d="M212.049 267.024H204.195V274.878H212.049V267.024Z" fill="black"/>
<path d="M219.902 267.024H212.049V274.878H219.902V267.024Z" fill="black"/>
<path d="M259.171 267.024H251.317V274.878H259.171V267.024Z" fill="black"/>
<path d="M274.878 267.024H267.024V274.878H274.878V267.024Z" fill="black"/>
<path d="M290.585 267.024H282.732V274.878H290.585V267.024Z" fill="black"/>
<path d="M314.146 267.024H306.293V274.878H314.146V267.024Z" fill="black"/>
<path d="M7.85366 274.878H0V282.732H7.85366V274.878Z" fill="black"/>
<path d="M54.9756 274.878H47.122V282.732H54.9756V274.878Z" fill="black"/>
<path d="M70.6829 274.878H62.8293V282.732H70.6829V274.878Z" fill="black"/>
<path d="M78.5366 274.878H70.6829V282.732H78.5366V274.878Z" fill="black"/>
<path d="M117.805 274.878H109.951V282.732H117.805V274.878Z" fill="black"/>
<path d="M133.512 274.878H125.659V282.732H133.512V274.878Z" fill="black"/>
<path d="M141.366 274.878H133.512V282.732H141.366V274.878Z" fill="black"/>
<path d="M149.22 274.878H141.366V282.732H149.22V274.878Z" fill="black"/>
<path d="M157.073 274.878H149.22V282.732H157.073V274.878Z" fill="black"/>
<path d="M164.927 274.878H157.073V282.732H164.927V274.878Z" fill="black"/>
<path d="M188.488 274.878H180.634V282.732H188.488V274.878Z" fill="black"/>
<path d="M204.195 274.878H196.341V282.732H204.195V274.878Z" fill="black"/>
<path d="M212.049 274.878H204.195V282.732H212.049V274.878Z" fill="black"/>
<path d="M219.902 274.878H212.049V282.732H219.902V274.878Z" fill="black"/>
<path d="M235.61 274.878H227.756V282.732H235.61V274.878Z" fill="black"/>
<path d="M259.171 274.878H251.317V282.732H259.171V274.878Z" fill="black"/>
<path d="M290.585 274.878H282.732V282.732H290.585V274.878Z" fill="black"/>
<path d="M298.439 274.878H290.585V282.732H298.439V274.878Z" fill="black"/>
<path d="M314.146 274.878H306.293V282.732H314.146V274.878Z" fill="black"/>
<path d="M322 274.878H314.146V282.732H322V274.878Z" fill="black"/>
<path d="M7.85366 282.732H0V290.585H7.85366V282.732Z" fill="black"/>
<path d="M23.561 282.732H15.7073V290.585H23.561V282.732Z" fill="black"/>
<path d="M31.4146 282.732H23.561V290.585H31.4146V282.732Z" fill="black"/>
<path d="M39.2683 282.732H31.4146V290.585H39.2683V282.732Z" fill="black"/>
<path d="M54.9756 282.732H47.122V290.585H54.9756V282.732Z" fill="black"/>
<path d="M70.6829 282.732H62.8293V290.585H70.6829V282.732Z" fill="black"/>
<path d="M78.5366 282.732H70.6829V290.585H78.5366V282.732Z" fill="black"/>
<path d="M86.3903 282.732H78.5366V290.585H86.3903V282.732Z" fill="black"/>
<path d="M94.2439 282.732H86.3903V290.585H94.2439V282.732Z" fill="black"/>
<path d="M109.951 282.732H102.098V290.585H109.951V282.732Z" fill="black"/>
<path d="M141.366 282.732H133.512V290.585H141.366V282.732Z" fill="black"/>
<path d="M164.927 282.732H157.073V290.585H164.927V282.732Z" fill="black"/>
<path d="M172.781 282.732H164.927V290.585H172.781V282.732Z" fill="black"/>
<path d="M204.195 282.732H196.341V290.585H204.195V282.732Z" fill="black"/>
<path d="M235.61 282.732H227.756V290.585H235.61V282.732Z" fill="black"/>
<path d="M243.463 282.732H235.61V290.585H243.463V282.732Z" fill="black"/>
<path d="M251.317 282.732H243.463V290.585H251.317V282.732Z" fill="black"/>
<path d="M259.171 282.732H251.317V290.585H259.171V282.732Z" fill="black"/>
<path d="M267.024 282.732H259.171V290.585H267.024V282.732Z" fill="black"/>
<path d="M274.878 282.732H267.024V290.585H274.878V282.732Z" fill="black"/>
<path d="M282.732 282.732H274.878V290.585H282.732V282.732Z" fill="black"/>
<path d="M290.585 282.732H282.732V290.585H290.585V282.732Z" fill="black"/>
<path d="M322 282.732H314.146V290.585H322V282.732Z" fill="black"/>
<path d="M7.85366 290.585H0V298.439H7.85366V290.585Z" fill="black"/>
<path d="M23.561 290.585H15.7073V298.439H23.561V290.585Z" fill="black"/>
<path d="M31.4146 290.585H23.561V298.439H31.4146V290.585Z" fill="black"/>
<path d="M39.2683 290.585H31.4146V298.439H39.2683V290.585Z" fill="black"/>
<path d="M54.9756 290.585H47.122V298.439H54.9756V290.585Z" fill="black"/>
<path d="M70.6829 290.585H62.8293V298.439H70.6829V290.585Z" fill="black"/>
<path d="M78.5366 290.585H70.6829V298.439H78.5366V290.585Z" fill="black"/>
<path d="M94.2439 290.585H86.3903V298.439H94.2439V290.585Z" fill="black"/>
<path d="M125.659 290.585H117.805V298.439H125.659V290.585Z" fill="black"/>
<path d="M133.512 290.585H125.659V298.439H133.512V290.585Z" fill="black"/>
<path d="M141.366 290.585H133.512V298.439H141.366V290.585Z" fill="black"/>
<path d="M149.22 290.585H141.366V298.439H149.22V290.585Z" fill="black"/>
<path d="M157.073 290.585H149.22V298.439H157.073V290.585Z" fill="black"/>
<path d="M180.634 290.585H172.781V298.439H180.634V290.585Z" fill="black"/>
<path d="M196.341 290.585H188.488V298.439H196.341V290.585Z" fill="black"/>
<path d="M219.902 290.585H212.049V298.439H219.902V290.585Z" fill="black"/>
<path d="M243.463 290.585H235.61V298.439H243.463V290.585Z" fill="black"/>
<path d="M259.171 290.585H251.317V298.439H259.171V290.585Z" fill="black"/>
<path d="M274.878 290.585H267.024V298.439H274.878V290.585Z" fill="black"/>
<path d="M282.732 290.585H274.878V298.439H282.732V290.585Z" fill="black"/>
<path d="M314.146 290.585H306.293V298.439H314.146V290.585Z" fill="black"/>
<path d="M322 290.585H314.146V298.439H322V290.585Z" fill="black"/>
<path d="M7.85366 298.439H0V306.293H7.85366V298.439Z" fill="black"/>
<path d="M23.561 298.439H15.7073V306.293H23.561V298.439Z" fill="black"/>
<path d="M31.4146 298.439H23.561V306.293H31.4146V298.439Z" fill="black"/>
<path d="M39.2683 298.439H31.4146V306.293H39.2683V298.439Z" fill="black"/>
<path d="M54.9756 298.439H47.122V306.293H54.9756V298.439Z" fill="black"/>
<path d="M172.781 298.439H164.927V306.293H172.781V298.439Z" fill="black"/>
<path d="M180.634 298.439H172.781V306.293H180.634V298.439Z" fill="black"/>
<path d="M196.341 298.439H188.488V306.293H196.341V298.439Z" fill="black"/>
<path d="M204.195 298.439H196.341V306.293H204.195V298.439Z" fill="black"/>
<path d="M235.61 298.439H227.756V306.293H235.61V298.439Z" fill="black"/>
<path d="M267.024 298.439H259.171V306.293H267.024V298.439Z" fill="black"/>
<path d="M290.585 298.439H282.732V306.293H290.585V298.439Z" fill="black"/>
<path d="M306.293 298.439H298.439V306.293H306.293V298.439Z" fill="black"/>
<path d="M314.146 298.439H306.293V306.293H314.146V298.439Z" fill="black"/>
<path d="M322 298.439H314.146V306.293H322V298.439Z" fill="black"/>
<path d="M7.85366 306.293H0V314.146H7.85366V306.293Z" fill="black"/>
<path d="M54.9756 306.293H47.122V314.146H54.9756V306.293Z" fill="black"/>
<path d="M94.2439 306.293H86.3903V314.146H94.2439V306.293Z" fill="black"/>
<path d="M102.098 306.293H94.2439V314.146H102.098V306.293Z" fill="black"/>
<path d="M109.951 306.293H102.098V314.146H109.951V306.293Z" fill="black"/>
<path d="M125.659 306.293H117.805V314.146H125.659V306.293Z" fill="black"/>
<path d="M133.512 306.293H125.659V314.146H133.512V306.293Z" fill="black"/>
<path d="M188.488 306.293H180.634V314.146H188.488V306.293Z" fill="black"/>
<path d="M282.732 306.293H274.878V314.146H282.732V306.293Z" fill="black"/>
<path d="M290.585 306.293H282.732V314.146H290.585V306.293Z" fill="black"/>
<path d="M298.439 306.293H290.585V314.146H298.439V306.293Z" fill="black"/>
<path d="M314.146 306.293H306.293V314.146H314.146V306.293Z" fill="black"/>
<path d="M322 306.293H314.146V314.146H322V306.293Z" fill="black"/>
<path d="M7.85366 314.146H0V322H7.85366V314.146Z" fill="black"/>
<path d="M15.7073 314.146H7.85366V322H15.7073V314.146Z" fill="black"/>
<path d="M23.561 314.146H15.7073V322H23.561V314.146Z" fill="black"/>
<path d="M31.4146 314.146H23.561V322H31.4146V314.146Z" fill="black"/>
<path d="M39.2683 314.146H31.4146V322H39.2683V314.146Z" fill="black"/>
<path d="M47.122 314.146H39.2683V322H47.122V314.146Z" fill="black"/>
<path d="M54.9756 314.146H47.122V322H54.9756V314.146Z" fill="black"/>
<path d="M70.6829 314.146H62.8293V322H70.6829V314.146Z" fill="black"/>
<path d="M78.5366 314.146H70.6829V322H78.5366V314.146Z" fill="black"/>
<path d="M86.3903 314.146H78.5366V322H86.3903V314.146Z" fill="black"/>
<path d="M102.098 314.146H94.2439V322H102.098V314.146Z" fill="black"/>
<path d="M109.951 314.146H102.098V322H109.951V314.146Z" fill="black"/>
<path d="M117.805 314.146H109.951V322H117.805V314.146Z" fill="black"/>
<path d="M125.659 314.146H117.805V322H125.659V314.146Z" fill="black"/>
<path d="M133.512 314.146H125.659V322H133.512V314.146Z" fill="black"/>
<path d="M141.366 314.146H133.512V322H141.366V314.146Z" fill="black"/>
<path d="M149.22 314.146H141.366V322H149.22V314.146Z" fill="black"/>
<path d="M157.073 314.146H149.22V322H157.073V314.146Z" fill="black"/>
<path d="M164.927 314.146H157.073V322H164.927V314.146Z" fill="black"/>
<path d="M172.781 314.146H164.927V322H172.781V314.146Z" fill="black"/>
<path d="M180.634 314.146H172.781V322H180.634V314.146Z" fill="black"/>
<path d="M204.195 314.146H196.341V322H204.195V314.146Z" fill="black"/>
<path d="M212.049 314.146H204.195V322H212.049V314.146Z" fill="black"/>
<path d="M219.902 314.146H212.049V322H219.902V314.146Z" fill="black"/>
<path d="M227.756 314.146H219.902V322H227.756V314.146Z" fill="black"/>
<path d="M243.463 314.146H235.61V322H243.463V314.146Z" fill="black"/>
<path d="M251.317 314.146H243.463V322H251.317V314.146Z" fill="black"/>
<path d="M259.171 314.146H251.317V322H259.171V314.146Z" fill="black"/>
<path d="M267.024 314.146H259.171V322H267.024V314.146Z" fill="black"/>
<path d="M274.878 314.146H267.024V322H274.878V314.146Z" fill="black"/>
<path d="M306.293 314.146H298.439V322H306.293V314.146Z" fill="black"/>
<path d="M314.146 314.146H306.293V322H314.146V314.146Z" fill="black"/>
</svg>
